<svg width="12" height="12" viewBox="0 0 12 12" fill="none" xmlns="http://www.w3.org/2000/svg">
<path fill-rule="evenodd" clip-rule="evenodd" d="M6.00156 11.4001C3.01922 11.4001 0.601562 8.98244 0.601562 6.0001C0.601562 3.01776 3.01922 0.600098 6.00156 0.600098C8.9839 0.600098 11.4016 3.01776 11.4016 6.0001C11.4016 8.98244 8.9839 11.4001 6.00156 11.4001ZM6.60156 6.0001V3.6001C6.60156 3.26873 6.33293 3.0001 6.00156 3.0001C5.67019 3.0001 5.40156 3.26873 5.40156 3.6001V6.6001C5.40156 6.93147 5.67019 7.2001 6.00156 7.2001H7.80156C8.13293 7.2001 8.40156 6.93147 8.40156 6.6001C8.40156 6.26873 8.13293 6.0001 7.80156 6.0001H6.60156Z" fill="#C4C4C4"/>
</svg>
